<svg width="32" height="32" viewBox="0 0 32 32" fill="none" xmlns="http://www.w3.org/2000/svg">
<circle cx="16" cy="16" r="16" fill="#FC822A"/>
<line x1="18.168" y1="10.2684" x2="13.5434" y2="22.4757" stroke="white" stroke-width="2.1" stroke-linecap="round"/>
<path fill-rule="evenodd" clip-rule="evenodd" d="M10.4028 16.7611C12.2914 16.7611 13.8224 15.2301 13.8224 13.3415C13.8224 11.4529 12.2914 9.92188 10.4028 9.92188C8.51417 9.92188 6.98315 11.4529 6.98315 13.3415C6.98315 15.2301 8.51417 16.7611 10.4028 16.7611ZM10.3356 14.73C11.0743 14.73 11.6732 14.1311 11.6732 13.3924C11.6732 12.6536 11.0743 12.0547 10.3356 12.0547C9.5968 12.0547 8.99791 12.6536 8.99791 13.3924C8.99791 14.1311 9.5968 14.73 10.3356 14.73Z" fill="white"/>
<path fill-rule="evenodd" clip-rule="evenodd" d="M21.5971 22.3147C23.4857 22.3147 25.0167 20.7837 25.0167 18.8951C25.0167 17.0065 23.4857 15.4755 21.5971 15.4755C19.7085 15.4755 18.1775 17.0065 18.1775 18.8951C18.1775 20.7837 19.7085 22.3147 21.5971 22.3147ZM21.5299 20.2837C22.2686 20.2837 22.8675 19.6848 22.8675 18.946C22.8675 18.2072 22.2686 17.6083 21.5299 17.6083C20.7911 17.6083 20.1922 18.2072 20.1922 18.946C20.1922 19.6848 20.7911 20.2837 21.5299 20.2837Z" fill="white"/>
</svg>
